<?xml version="1.0" encoding="utf-8"?>
<!-- Generator: Adobe Illustrator 27.5.0, SVG Export Plug-In . SVG Version: 6.00 Build 0)  -->
<svg version="1.1" xmlns="http://www.w3.org/2000/svg" xmlns:xlink="http://www.w3.org/1999/xlink" x="0px" y="0px"
	 viewBox="0 0 510.24 510.24" style="enable-background:new 0 0 510.24 510.24;" xml:space="preserve">
<style type="text/css">
	.st0{display:none;}
	.st1{fill:#FFFFFF;stroke:#FFFFFF;stroke-width:5;stroke-miterlimit:10;}
	.st2{fill:#FFFFFF;}
	.st3{fill:none;stroke:#FFFFFF;stroke-width:40;stroke-linecap:round;stroke-linejoin:round;stroke-miterlimit:10;}
	.st4{display:none;fill:#FFFFFF;}
	.st5{fill:none;stroke:#FFFFFF;stroke-width:18;stroke-linecap:round;stroke-linejoin:round;stroke-miterlimit:10;}
</style>

<g id="icon">
	<path class="st1" d="M409.03,77.78c-4.89,5.8-15.95,17.92-22.15,15.18c-2.68-1.19-2.24-4.17-6.56-19.69
		c-2.36-8.45-3.88-13.12-5.74-22.15c-1.7-8.27-1.8-11.11-0.41-13.95c2.95-6,10.49-7.73,14.36-8.62c14.56-3.33,28.15,3.74,27.9,4.92
		c-0.14,0.65-4.41-0.83-10.67,0.41c-7.08,1.41-12.38,5.44-16,9.03L409.03,77.78z"/>
	<path class="st1" d="M416.42,88.04c1.48-1.12,4.38,2.77,14.77,8.21c8.96,4.69,20.95,10.97,26.67,6.97
		c6.85-4.79,0.75-21.54,3.28-22.15c2.09-0.51,8.16,10.49,7.38,22.15c-0.21,3.18-0.48,6.52-2.87,9.44
		c-3.51,4.28-9.28,4.78-15.59,5.33c-5.6,0.49-10.27,0.9-15.18-0.82C419.79,111.89,413.34,90.37,416.42,88.04z"/>
	<circle class="st2" cx="388.67" cy="118.41" r="48.77"/>
	<path class="st3" d="M268.45,403.7c28-26,56-52,84-78l-151-38l-50,91l-101,73"/>
	<polyline class="st3" points="201.45,287.7 320.45,168.7 260.95,113.7 179.45,188.7 	"/>
	<polyline class="st3" points="271.78,305.4 366.45,214.7 413.45,264.7 477.45,200.7 	"/>
	<line class="st3" x1="320.45" y1="168.7" x2="366.45" y2="214.7"/>
	<path id="Head_00000101789708318258754630000008948730405907996033_" class="st4" d="M748.89-132.22
		c0,22.85-18.52,41.37-41.37,41.37s-41.37-18.52-41.37-41.37s18.52-41.37,41.37-41.37c20.37,0,35.78,15.94,40.07,31.03
		C749.01-137.55,748.89-133.58,748.89-132.22z"/>
	<line class="st3" x1="343.45" y1="200.7" x2="233.44" y2="295.75"/>
	<line class="st5" x1="179.45" y1="140.7" x2="50.45" y2="140.7"/>
	<line class="st5" x1="130.45" y1="206.7" x2="94.45" y2="206.7"/>
	<line class="st5" x1="162.45" y1="261.7" x2="18.45" y2="261.7"/>
	<polyline id="_x3C_Path_x3E__00000075163778265825700130000011979666282690515891_" class="st5" points="120.95,326.7
		100.45,326.7 75.45,326.7 24.45,326.7 	"/>
</g>
</svg>
